# xmcd
#
# Track frame offsets: 
#        150
#        11645
#        22921
#        45341
#        63105
#        78703
#        102846
#        124300
#        142020
#        163295
#        184296
#        193512
#        211214
#        232075
#        259202
#        276086
#        291021
#        305468
#        324462
#        339230
#
# Disc length: 4798 seconds
#
# Revision: 4
# Processed by: cddbd v1.5.2PL0 Copyright (c) Steve Scherf et al.
# Submitted via: ExactAudioCopy v0.99pb5
#
DISCID=2312bc14
DTITLE=Various Artist - SZ - Diskothek - 1987
DYEAR=1987
DGENRE=Pop
TTITLE0=They Might Be Giants - Don't let's start
TTITLE1=Hüsker Dü - Could you be the one?
TTITLE2=Pet Shop Boys - It's a sin
TTITLE3=Mory Kanté - Yé ké yé ké
TTITLE4=Salt-N-Pepa - Push It
TTITLE5=LL Cool J - I need love
TTITLE6=David Sylvian - Orpheus
TTITLE7=Sisters Of Mercy - This corrosion
TTITLE8=Warren Zevon - Boom boom Mancini
TTITLE9=Red Hot Chili Peppers - Behind the sun
TTITLE10=Smiths - Girlfriend in a coma
TTITLE11=Nanci Griffith - Lone star state of mind
TTITLE12=Sonic Youth - Schizophrenia
TTITLE13=Rhythim Is Rhythim - Strings of life
TTITLE14=Eric B. and Rakim - Paid in full
TTITLE15=Bomb The Bass - Beat dis
TTITLE16=Replacements - Alex Chilton
TTITLE17=Wedding Present - My favourite dress
TTITLE18=INXS - Mystify
TTITLE19=Pogues feat. Kirsty MacColl - Fairytale of New York
EXTD=
EXTT0=
EXTT1=
EXTT2=
EXTT3=
EXTT4=
EXTT5=
EXTT6=
EXTT7=
EXTT8=
EXTT9=
EXTT10=
EXTT11=
EXTT12=
EXTT13=
EXTT14=
EXTT15=
EXTT16=
EXTT17=
EXTT18=
EXTT19=
PLAYORDER=
